<?xml version="1.0" encoding="UTF-8"?>
<svg version="1.1" xmlns="http://www.w3.org/2000/svg" width="311" height="162">
<path d="M0 0 C102.63 0 205.26 0 311 0 C311 53.46 311 106.92 311 162 C208.37 162 105.74 162 0 162 C0 108.54 0 55.08 0 0 Z " fill="#89ACBC" transform="translate(0,0)"/>
<path d="M0 0 C0.33 0 0.66 0 1 0 C1 49.5 1 99 1 150 C-97.34 150 -195.68 150 -297 150 C-297 144.72 -297 139.44 -297 134 C-295.35 134 -293.7 134 -292 134 C-292.33 124.76 -292.66 115.52 -293 106 C-293.33 106 -293.66 106 -294 106 C-294.66 110.95 -295.32 115.9 -296 121 C-296.33 121 -296.66 121 -297 121 C-297 113.41 -297 105.82 -297 98 C-296.34 98 -295.68 98 -295 98 C-294.4601712 94.21079101 -293.946701 90.41843628 -293.4375 86.625 C-293.28603516 85.56410156 -293.13457031 84.50320312 -292.97851562 83.41015625 C-292.10931963 76.82043776 -291.69177473 70.5646274 -293 64 C-293.33 63.67 -293.66 63.34 -294 63 C-294.66 63.99 -295.32 64.98 -296 66 C-296.23863636 52.39772727 -296.23863636 52.39772727 -293 47 C-292.34 47.33 -291.68 47.66 -291 48 C-291 48.66 -291 49.32 -291 50 C-290.34 50 -289.68 50 -289 50 C-288.67 49.34 -288.34 48.68 -288 48 C-287.67 48.33 -287.34 48.66 -287 49 C-286.32326553 45.59679066 -286.32326553 45.59679066 -286 42 C-286.66 41.34 -287.32 40.68 -288 40 C-288 39.01 -288 38.02 -288 37 C-287.34 37 -286.68 37 -286 37 C-285.67 35.35 -285.34 33.7 -285 32 C-283.68 32.33 -282.36 32.66 -281 33 C-281 33.66 -281 34.32 -281 35 C-280.01 35.103125 -279.02 35.20625 -278 35.3125 C-273.71702837 35.90808706 -270.00003629 37.38595027 -266 39 C-269.91736581 40.1700097 -272.97959015 39.69584017 -277 39 C-277 39.66 -277 40.32 -277 41 C-276.34 41 -275.68 41 -275 41 C-274.67 42.65 -274.34 44.3 -274 46 C-274.66 46 -275.32 46 -276 46 C-276.99 45.01 -277.98 44.02 -279 43 C-277.68 45.64 -276.36 48.28 -275 51 C-274.01 50.34 -273.02 49.68 -272 49 C-269.3125 49.875 -269.3125 49.875 -267 51 C-267 51.66 -267 52.32 -267 53 C-266.34 53 -265.68 53 -265 53 C-264.9175 53.78375 -264.835 54.5675 -264.75 55.375 C-264.29633683 58.10658251 -264.29633683 58.10658251 -262.1875 59.0625 C-261.465625 59.371875 -260.74375 59.68125 -260 60 C-257.75 62 -257.75 62 -256 64 C-256 64.66 -256 65.32 -256 66 C-255.01 66.33 -254.02 66.66 -253 67 C-251.8125 69.5625 -251.8125 69.5625 -251 72 C-250.34 72 -249.68 72 -249 72 C-248.7525 72.78375 -248.505 73.5675 -248.25 74.375 C-246.84610901 77.32317108 -245.99324263 77.9024777 -243 79 C-243 79.66 -243 80.32 -243 81 C-241.68 81 -240.36 81 -239 81 C-238.731875 81.763125 -238.46375 82.52625 -238.1875 83.3125 C-237.03078648 85.93032534 -236.06505276 87.10703497 -234 89 C-232 92 -232 92 -232.375 95.1875 C-232.684375 96.5796875 -232.684375 96.5796875 -233 98 C-234.32 97.67 -235.64 97.34 -237 97 C-237 97.66 -237 98.32 -237 99 C-236.34 99 -235.68 99 -235 99 C-235 99.66 -235 100.32 -235 101 C-233.68 101.66 -232.36 102.32 -231 103 C-231 103.66 -231 104.32 -231 105 C-230.34 105.33 -229.68 105.66 -229 106 C-229 108 -229 110 -229 112 C-228.34 111.67 -227.68 111.34 -227 111 C-227.33 109.35 -227.66 107.7 -228 106 C-226.515 106.495 -226.515 106.495 -225 107 C-225 107.66 -225 108.32 -225 109 C-224.236875 109.20625 -223.47375 109.4125 -222.6875 109.625 C-219.17770897 111.42070704 -218.47400219 113.43136312 -217 117 C-215.02 115.515 -215.02 115.515 -213 114 C-212.67 114.66 -212.34 115.32 -212 116 C-210.68 115.67 -209.36 115.34 -208 115 C-208 106.09 -208 97.18 -208 88 C-207.67 88 -207.34 88 -207 88 C-206.93941406 89.04800781 -206.87882812 90.09601563 -206.81640625 91.17578125 C-206.73198262 92.55470048 -206.64733553 93.93360605 -206.5625 95.3125 C-206.52318359 96.00279297 -206.48386719 96.69308594 -206.44335938 97.40429688 C-206.25072585 100.47161535 -205.97677283 103.06968152 -205 106 C-205.08767087 108.74607776 -205.22956735 111.45091508 -205.4375 114.1875 C-205.48970703 114.93708984 -205.54191406 115.68667969 -205.59570312 116.45898438 C-205.72513784 118.30637082 -205.86186518 120.15324371 -206 122 C-205.34 122 -204.68 122 -204 122 C-204 122.66 -204 123.32 -204 124 C-202.741875 124.10957031 -201.48375 124.21914062 -200.1875 124.33203125 C-189.31172753 125.32403482 -178.68907932 126.76066774 -168 129 C-168 129.66 -168 130.32 -168 131 C-167.2886792 131.02505615 -166.5773584 131.0501123 -165.84448242 131.07592773 C-162.62530483 131.19188439 -159.40642015 131.31461245 -156.1875 131.4375 C-155.06794922 131.47681641 -153.94839844 131.51613281 -152.79492188 131.55664062 C-151.72177734 131.59853516 -150.64863281 131.64042969 -149.54296875 131.68359375 C-148.0583313 131.73858032 -148.0583313 131.73858032 -146.54370117 131.79467773 C-144 132 -144 132 -141 133 C-141 132.01 -141 131.02 -141 130 C-140.34 130 -139.68 130 -139 130 C-138.88785156 129.28457031 -138.77570313 128.56914062 -138.66015625 127.83203125 C-137.95543995 124.80884002 -136.86712202 122.43677312 -135.4375 119.6875 C-134.98246094 118.80449219 -134.52742187 117.92148438 -134.05859375 117.01171875 C-133.70925781 116.34785156 -133.35992187 115.68398437 -133 115 C-132.34 115 -131.68 115 -131 115 C-130.88785156 114.44441406 -130.77570313 113.88882813 -130.66015625 113.31640625 C-129.63968753 109.73570832 -127.79844631 106.61746968 -126.05859375 103.33984375 C-124.79390103 100.97248092 -124.79390103 100.97248092 -125 98 C-122.5 95.8125 -122.5 95.8125 -120 94 C-119.67 95.32 -119.34 96.64 -119 98 C-117.68 98 -116.36 98 -115 98 C-114.67 98.99 -114.34 99.98 -114 101 C-113.67 97.37 -113.34 93.74 -113 90 C-112.67 90 -112.34 90 -112 90 C-112 97.59 -112 105.18 -112 113 C-111.34 113.33 -110.68 113.66 -110 114 C-110.99 114.33 -111.98 114.66 -113 115 C-114.1500831 116.96672915 -114.1500831 116.96672915 -115 119 C-115.33 119.33 -115.66 119.66 -116 120 C-115.67 120 -115.34 120 -115 120 C-114.97301811 121.62490954 -114.95361243 123.24994633 -114.9375 124.875 C-114.92589844 125.77992188 -114.91429687 126.68484375 -114.90234375 127.6171875 C-115 130 -115 130 -116 132 C-115.29875 131.55269531 -114.5975 131.10539063 -113.875 130.64453125 C-111.90864415 129.39151373 -109.94114102 128.14029533 -107.97265625 126.890625 C-106.16412809 125.74039158 -104.35860007 124.58539908 -102.55859375 123.421875 C-101.85863281 122.97328125 -101.15867188 122.5246875 -100.4375 122.0625 C-99.81746094 121.66160156 -99.19742188 121.26070313 -98.55859375 120.84765625 C-97 120 -97 120 -95 120 C-95 119.34 -95 118.68 -95 118 C-94.01 118 -93.02 118 -92 118 C-92 117.34 -92 116.68 -92 116 C-90.36070702 114.95573169 -88.68713391 113.96506837 -87 113 C-84.18069777 110.98049982 -81.40235142 108.91132138 -78.62109375 106.83984375 C-76.45140568 105.31685853 -74.4053008 104.09228954 -72 103 C-74.475 100.525 -74.475 100.525 -77 98 C-76.67 97.01 -76.34 96.02 -76 95 C-73.69 95 -71.38 95 -69 95 C-69 96.65 -69 98.3 -69 100 C-64.93975679 97.96197865 -64.93975679 97.96197865 -63 94 C-62.34 94.33 -61.68 94.66 -61 95 C-60.67 93.68 -60.34 92.36 -60 91 C-58.68 91 -57.36 91 -56 91 C-55.67 92.32 -55.34 93.64 -55 95 C-54.01 95 -53.02 95 -52 95 C-52 95.66 -52 96.32 -52 97 C-51.195625 97.0825 -50.39125 97.165 -49.5625 97.25 C-45.04065795 98.20196675 -41.15297299 100.01580179 -37 102 C-37 101.01 -37 100.02 -37 99 C-36.01 99.33 -35.02 99.66 -34 100 C-34.33 100.99 -34.66 101.98 -35 103 C-29.08450041 105.10672722 -24.25961135 106.78846039 -18 105 C-16.39588754 103.64594139 -16.39588754 103.64594139 -15 102 C-13 101 -11 100 -9 99 C-7.73643596 98.12340245 -6.48644364 97.22695311 -5.25 96.3125 C-2 94 -2 94 0 94 C-0.11038857 93.14356148 -0.11038857 93.14356148 -0.2230072 92.26982117 C-1.27586957 82.76865431 -1.02619989 73.30952264 -0.87890625 63.76953125 C-0.85455937 61.92437885 -0.83071824 60.07921972 -0.80735779 58.23405457 C-0.74497076 53.41230508 -0.67577926 48.59067712 -0.60510254 43.76904297 C-0.5340053 38.83501652 -0.46943732 33.90090493 -0.40429688 28.96679688 C-0.27587085 19.31110431 -0.14024607 9.65552762 0 0 Z " fill="#85AABB" transform="translate(304,6)"/>
<path d="M0 0 C99.99 0 199.98 0 303 0 C303 50.82 303 101.64 303 154 C203.01 154 103.02 154 0 154 C0 103.18 0 52.36 0 0 Z M2 2 C2 51.5 2 101 2 152 C100.67 152 199.34 152 301 152 C301 102.5 301 53 301 2 C202.33 2 103.66 2 2 2 Z " fill="#E2F6FA" transform="translate(4,4)"/>
<path d="M0 0 C21.12 0 42.24 0 64 0 C64 0.66 64 1.32 64 2 C44.2 2.33 24.4 2.66 4 3 C4 54.48 4 105.96 4 159 C16.74238281 158.98839844 29.48476563 158.97679687 42.61328125 158.96484375 C50.66601583 158.95973671 58.71874923 158.95488164 66.77148438 158.95117188 C79.56470133 158.94523105 92.35791171 158.93823537 105.15112305 158.92456055 C114.46704923 158.91460737 123.7829701 158.90814505 133.09890145 158.90591151 C138.03365149 158.90460548 142.96838631 158.90152642 147.90313148 158.89426994 C152.54463383 158.88749975 157.18611465 158.88538509 161.82762146 158.88689232 C163.53406071 158.88661644 165.24050066 158.88461723 166.94693565 158.88079453 C169.27119448 158.87584171 171.59537135 158.87700763 173.91963196 158.87974548 C175.22212544 158.87882369 176.52461893 158.8779019 177.86658192 158.87695217 C181 159 181 159 184 160 C184 160.66 184 161.32 184 162 C123.28 162 62.56 162 0 162 C0 108.54 0 55.08 0 0 Z " fill="#85A8B7" transform="translate(0,0)"/>
<path d="M0 0 C80.85 0 161.7 0 245 0 C244.67 1.98 244.34 3.96 244 6 C243.67 5.34 243.34 4.68 243 4 C143.01 4 43.02 4 -60 4 C-60 3.67 -60 3.34 -60 3 C-52.67163924 2.10783799 -45.46369024 1.86580257 -38.0859375 1.90234375 C-36.44245834 1.90446617 -36.44245834 1.90446617 -34.76577759 1.90663147 C-31.30215605 1.91218229 -27.83860166 1.92472541 -24.375 1.9375 C-22.01171969 1.94252136 -19.64843836 1.94708315 -17.28515625 1.95117188 C-11.52341499 1.96213556 -5.7617123 1.97882394 0 2 C0 1.34 0 0.68 0 0 Z " fill="#98B2C1" transform="translate(64,0)"/>
<path d="M0 0 C0.33 0 0.66 0 1 0 C1.06058594 1.04800781 1.12117188 2.09601563 1.18359375 3.17578125 C1.26801738 4.55470048 1.35266447 5.93360605 1.4375 7.3125 C1.47681641 8.00279297 1.51613281 8.69308594 1.55664062 9.40429688 C1.74927415 12.47161535 2.02322717 15.06968152 3 18 C2.91232913 20.74607776 2.77043265 23.45091508 2.5625 26.1875 C2.51029297 26.93708984 2.45808594 27.68667969 2.40429688 28.45898438 C2.27486216 30.30637082 2.13813482 32.15324371 2 34 C2.66 34 3.32 34 4 34 C4 34.66 4 35.32 4 36 C5.258125 36.10957031 6.51625 36.21914062 7.8125 36.33203125 C18.68827247 37.32403482 29.31092068 38.76066774 40 41 C40 41.33 40 41.66 40 42 C31.42 41.34 22.84 40.68 14 40 C14 39.67 14 39.34 14 39 C11.03 38.505 11.03 38.505 8 38 C8 38.66 8 39.32 8 40 C6.02 40.495 6.02 40.495 4 41 C4 43.97 4 46.94 4 50 C4.66 50 5.32 50 6 50 C6 52.64 6 55.28 6 58 C6.66 58 7.32 58 8 58 C7.67 59.32 7.34 60.64 7 62 C-4.55 62 -16.1 62 -28 62 C-28 61.67 -28 61.34 -28 61 C-26.02 61 -24.04 61 -22 61 C-21.34 58.69 -20.68 56.38 -20 54 C-19.01 54 -18.02 54 -17 54 C-17.33 52.02 -17.66 50.04 -18 48 C-17.01 48.66 -16.02 49.32 -15 50 C-8.15555 47.05808728 -3.84147544 40.1463607 0 34 C-0.78375 33.690625 -1.5675 33.38125 -2.375 33.0625 C-5 32 -5 32 -7 31 C-7.33 30.01 -7.66 29.02 -8 28 C-7.01 27.34 -6.02 26.68 -5 26 C-4.67 26.66 -4.34 27.32 -4 28 C-2.68 27.67 -1.36 27.34 0 27 C0 18.09 0 9.18 0 0 Z " fill="#81A9B9" transform="translate(96,94)"/>
<path d="M0 0 C0.33 0 0.66 0 1 0 C1 15.51 1 31.02 1 47 C21.79 47 42.58 47 64 47 C64.33 47.99 64.66 48.98 65 50 C42.56 50 20.12 50 -3 50 C-3 42.08 -3 34.16 -3 26 C-2.01 26 -1.02 26 0 26 C-0.08378906 25.29617187 -0.16757812 24.59234375 -0.25390625 23.8671875 C-1.08730556 15.786379 -0.77661495 8.07679552 0 0 Z " fill="#7FA6B3" transform="translate(3,112)"/>
<path d="M0 0 C3.9200085 -0.37692389 6.17715224 -0.5907625 9.4375 1.75 C11.84867466 6.7652433 11.86678601 11.54301678 11 17 C8.875 20.25 8.875 20.25 6 22 C2.875 22.625 2.875 22.625 0 22 C-1.8125 19.625 -1.8125 19.625 -3 17 C-3.33 16.34 -3.66 15.68 -4 15 C-4.54756509 8.53873191 -3.58630554 5.37945831 0 0 Z " fill="#E2F1F6" transform="translate(133,72)"/>
<path d="M0 0 C0.33 0 0.66 0 1 0 C1.06058594 1.04800781 1.12117188 2.09601563 1.18359375 3.17578125 C1.26801738 4.55470048 1.35266447 5.93360605 1.4375 7.3125 C1.47681641 8.00279297 1.51613281 8.69308594 1.55664062 9.40429688 C1.74927415 12.47161535 2.02322717 15.06968152 3 18 C2.91232913 20.74607776 2.77043265 23.45091508 2.5625 26.1875 C2.51029297 26.93708984 2.45808594 27.68667969 2.40429688 28.45898438 C2.27486216 30.30637082 2.13813482 32.15324371 2 34 C2.66 34 3.32 34 4 34 C4 34.66 4 35.32 4 36 C5.258125 36.10957031 6.51625 36.21914062 7.8125 36.33203125 C18.68827247 37.32403482 29.31092068 38.76066774 40 41 C40 41.33 40 41.66 40 42 C31.42 41.34 22.84 40.68 14 40 C14 39.67 14 39.34 14 39 C12.02 38.67 10.04 38.34 8 38 C8 38.66 8 39.32 8 40 C5.69 40 3.38 40 1 40 C0.938125 39.05125 0.87625 38.1025 0.8125 37.125 C0.4103125 35.578125 0.4103125 35.578125 0 34 C-2.38119246 32.59742124 -2.38119246 32.59742124 -5 32 C-7 31 -7 31 -8 28 C-7.01 27.34 -6.02 26.68 -5 26 C-4.67 26.66 -4.34 27.32 -4 28 C-2.68 27.67 -1.36 27.34 0 27 C0 18.09 0 9.18 0 0 Z " fill="#779EAE" transform="translate(96,94)"/>
<path d="M0 0 C1.32 0 2.64 0 4 0 C4 2.64 4 5.28 4 8 C4.99 7.67 5.98 7.34 7 7 C6.6479759 15.85340609 5.39082557 24.50899598 4 33.25 C3.82178711 34.38171631 3.64357422 35.51343262 3.45996094 36.67944336 C3.28754883 37.7391333 3.11513672 38.79882324 2.9375 39.890625 C2.78152344 40.85000977 2.62554688 41.80939453 2.46484375 42.79785156 C2 45 2 45 1 46 C1.7425 46.144375 2.485 46.28875 3.25 46.4375 C5.52027739 46.90187492 7.75759479 47.41863569 10 48 C7.36 48.33 4.72 48.66 2 49 C2 49.66 2 50.32 2 51 C1.34 51 0.68 51 0 51 C0.01160156 51.56847656 0.02320313 52.13695312 0.03515625 52.72265625 C0.09223194 57.60670484 -0.18043228 62.18503965 -1 67 C-1.33 67 -1.66 67 -2 67 C-2 59.41 -2 51.82 -2 44 C-1.34 44 -0.68 44 0 44 C0.5398288 40.21079101 1.053299 36.41843628 1.5625 32.625 C1.71396484 31.56410156 1.86542969 30.50320312 2.02148438 29.41015625 C2.89068037 22.82043776 3.30822527 16.5646274 2 10 C1.67 9.67 1.34 9.34 1 9 C0.34 9.99 -0.32 10.98 -1 12 C-1.14285714 3.42857143 -1.14285714 3.42857143 0 0 Z " fill="#77A0B5" transform="translate(9,60)"/>
<path d="M0 0 C1.32 0 2.64 0 4 0 C5.125 4.75 5.125 4.75 4 7 C3.01 7 2.02 7 1 7 C1.33 8.65 1.66 10.3 2 12 C1.01 12.495 1.01 12.495 0 13 C-0.3449145 14.33038449 -0.67516582 15.66457061 -1 17 C-1.96887581 19.01526169 -2.9641321 21.01833966 -4 23 C-5.37095624 19.30962722 -4.60010967 17.29116165 -3.0625 13.75 C-2.68222656 12.85796875 -2.30195313 11.9659375 -1.91015625 11.046875 C-1.60980469 10.37140625 -1.30945313 9.6959375 -1 9 C-2.70840281 10.63412443 -3.93453047 11.86906094 -5 14 C-5.78375 13.79375 -6.5675 13.5875 -7.375 13.375 C-8.24125 13.25125 -9.1075 13.1275 -10 13 C-10.66 13.66 -11.32 14.32 -12 15 C-12.99 14.67 -13.98 14.34 -15 14 C-14.01 13.34 -13.02 12.68 -12 12 C-13.65 10.35 -15.3 8.7 -17 7 C-16.67 6.01 -16.34 5.02 -16 4 C-13.69 4 -11.38 4 -9 4 C-9 5.65 -9 7.3 -9 9 C-4.93975679 6.96197865 -4.93975679 6.96197865 -3 3 C-2.34 3.33 -1.68 3.66 -1 4 C-0.67 2.68 -0.34 1.36 0 0 Z " fill="#7AA4B4" transform="translate(244,97)"/>
<path d="M0 0 C0.33 0 0.66 0 1 0 C1 5.61 1 11.22 1 17 C0.34 17 -0.32 17 -1 17 C-1.33 14.36 -1.66 11.72 -2 9 C-2.66 9 -3.32 9 -4 9 C-4.33 10.98 -4.66 12.96 -5 15 C-5.99 15.33 -6.98 15.66 -8 16 C-7.01 16.33 -6.02 16.66 -5 17 C-6.65 17.33 -8.3 17.66 -10 18 C-10 18.33 -10 18.66 -10 19 C-11.65 19 -13.3 19 -15 19 C-15 16.69 -15 14.38 -15 12 C-13.02 12 -11.04 12 -9 12 C-9.33 11.34 -9.66 10.68 -10 10 C-12.52733235 9.34444881 -12.52733235 9.34444881 -15 9 C-15 7.02 -15 5.04 -15 3 C-8.375 2.875 -8.375 2.875 -5 4 C-4.67 4.66 -4.34 5.32 -4 6 C-3.01 6 -2.02 6 -1 6 C-1.020625 5.195625 -1.04125 4.39125 -1.0625 3.5625 C-1 1 -1 1 0 0 Z " fill="#8AA9B5" transform="translate(108,72)"/>
<path d="M0 0 C0.99 0.33 1.98 0.66 3 1 C3 1.66 3 2.32 3 3 C3.804375 3.268125 4.60875 3.53625 5.4375 3.8125 C6.283125 4.204375 7.12875 4.59625 8 5 C8.33 5.99 8.66 6.98 9 8 C7.72641268 9.71275535 6.38576923 11.37667033 5 13 C4.29114106 14.31138904 3.60543548 15.63777017 3 17 C3 16.34 3 15.68 3 15 C2.34 15 1.68 15 1 15 C1.33 15.763125 1.66 16.52625 2 17.3125 C3 20 3 20 3 23 C2.34 23.33 1.68 23.66 1 24 C1.33 25.98 1.66 27.96 2 30 C-0.97202752 27.02797248 -2.10156928 23.41132186 -3.6875 19.5625 C-4.02072266 18.78583984 -4.35394531 18.00917969 -4.69726562 17.20898438 C-5.00728516 16.46068359 -5.31730469 15.71238281 -5.63671875 14.94140625 C-5.92248779 14.25763916 -6.20825684 13.57387207 -6.50268555 12.86938477 C-7 11 -7 11 -6 8 C-5.34 9.65 -4.68 11.3 -4 13 C-2.68 12.01 -1.36 11.02 0 10 C-0.33 9.01 -0.66 8.02 -1 7 C-0.01 6.01 0.98 5.02 2 4 C1.34 2.68 0.68 1.36 0 0 Z " fill="#7EA5B6" transform="translate(76,112)"/>
<path d="M0 0 C7 0 7 0 9.4375 1.125 C11 3 11 3 11.4375 6 C11 9 11 9 9.875 10.8125 C7.33323785 12.42228269 4.9601892 12.67109009 2 13 C2 15.31 2 17.62 2 20 C1.34 20 0.68 20 0 20 C0 13.4 0 6.8 0 0 Z " fill="#EBFAFE" transform="translate(110,73)"/>
<path d="M0 0 C0.99 0 1.98 0 3 0 C4.65 3.3 6.3 6.6 8 10 C8.33 6.7 8.66 3.4 9 0 C9.99 0 10.98 0 12 0 C12 6.6 12 13.2 12 20 C11.01 20 10.02 20 9 20 C7.02 15.71 5.04 11.42 3 7 C2.67 11.29 2.34 15.58 2 20 C1.34 20 0.68 20 0 20 C0 13.4 0 6.8 0 0 Z " fill="#E4F2F5" transform="translate(209,73)"/>
<path d="M0 0 C3.82265288 1.78390468 5.62128573 3.43192859 8 7 C7.625 10.1875 7.625 10.1875 7 13 C5.68 12.67 4.36 12.34 3 12 C3 12.66 3 13.32 3 14 C3.66 14 4.32 14 5 14 C5 14.66 5 15.32 5 16 C6.32 16.66 7.64 17.32 9 18 C9 18.66 9 19.32 9 20 C7 19 5 18 3 17 C3 16.34 3 15.68 3 15 C2.34 15 1.68 15 1 15 C1.33 15.763125 1.66 16.52625 2 17.3125 C3 20 3 20 3 23 C2.34 23 1.68 23 1 23 C0.34 21.02 -0.32 19.04 -1 17 C-1.66 17.66 -2.32 18.32 -3 19 C-3 16.69 -3 14.38 -3 12 C-3.66 12 -4.32 12 -5 12 C-5 12.66 -5 13.32 -5 14 C-5.99 13.67 -6.98 13.34 -8 13 C-7.67 12.01 -7.34 11.02 -7 10 C-5.02 9.67 -3.04 9.34 -1 9 C-1 9.66 -1 10.32 -1 11 C-0.01 11 0.98 11 2 11 C2.76522801 7.64541845 2.76522801 7.64541845 3 4 C1.68681738 2.10041919 1.68681738 2.10041919 0 1 C0 0.67 0 0.34 0 0 Z " fill="#749DAC" transform="translate(64,91)"/>
<path d="M0 0 C0.68835938 0.23396484 1.37671875 0.46792969 2.0859375 0.70898438 C3.76703645 1.28102499 5.44622163 1.85868456 7.125 2.4375 C7.125 2.7675 7.125 3.0975 7.125 3.4375 C-6.24 3.9325 -6.24 3.9325 -19.875 4.4375 C-19.545 2.4575 -19.215 0.4775 -18.875 -1.5625 C-12.97422583 -5.4401516 -6.08338147 -2.10442557 0 0 Z " fill="#82AABC" transform="translate(34.875,150.5625)"/>
<path d="M0 0 C1.32 0.33 2.64 0.66 4 1 C4 1.66 4 2.32 4 3 C4.99 3.103125 5.98 3.20625 7 3.3125 C11.28297163 3.90808706 14.99996371 5.38595027 19 7 C15.08263419 8.1700097 12.02040985 7.69584017 8 7 C8 7.66 8 8.32 8 9 C8.66 9 9.32 9 10 9 C10.33 10.65 10.66 12.3 11 14 C9 14 9 14 7.375 12.5 C6.92125 12.005 6.4675 11.51 6 11 C6.495 11.70125 6.99 12.4025 7.5 13.125 C9.1936681 16.37119719 9.25162315 18.39340156 9 22 C6.35478068 19.35478068 5.55457481 16.33828651 4.375 12.875 C4.14554688 12.21628906 3.91609375 11.55757812 3.6796875 10.87890625 C3.11463758 9.25438774 2.55663723 7.62742029 2 6 C1.34 6.66 0.68 7.32 0 8 C0 7.34 0 6.68 0 6 C-0.99 6.33 -1.98 6.66 -3 7 C-3 6.34 -3 5.68 -3 5 C-2.34 5 -1.68 5 -1 5 C-0.67 3.35 -0.34 1.7 0 0 Z " fill="#7AA3B3" transform="translate(19,38)"/>
<path d="M0 0 C2.375 -0.1875 2.375 -0.1875 5 0 C7.17330391 3.25995586 7.24921459 4.22979966 7.1875 8 C7.17783203 9.299375 7.17783203 9.299375 7.16796875 10.625 C7 13 7 13 6 16 C4.02 16 2.04 16 0 16 C-1.36538938 13.26922124 -1.13231826 11.04439633 -1.125 8 C-1.12757813 6.9275 -1.13015625 5.855 -1.1328125 4.75 C-1 2 -1 2 0 0 Z " fill="#8FABB5" transform="translate(134,75)"/>
<path d="M0 0 C0.33 0.99 0.66 1.98 1 3 C-1.31 3.33 -3.62 3.66 -6 4 C-6.02693575 6.12493141 -6.04636628 8.24995912 -6.0625 10.375 C-6.07410156 11.55835937 -6.08570313 12.74171875 -6.09765625 13.9609375 C-6.21466593 16.91921521 -6.21466593 16.91921521 -5 19 C-2.97536745 19.65213292 -2.97536745 19.65213292 -1 20 C-1 17.36 -1 14.72 -1 12 C-0.34 12 0.32 12 1 12 C1 15.3 1 18.6 1 22 C-1.64 22 -4.28 22 -7 22 C-7 21.34 -7 20.68 -7 20 C-7.66 20 -8.32 20 -9 20 C-11.49765926 16.25351111 -11.53246938 12.34043225 -11 8 C-10.26075282 5.35693818 -9.34559785 3.44201092 -8 1 C-5.07175348 0.02391783 -3.04386724 -0.08226668 0 0 Z " fill="#D2E8EF" transform="translate(242,72)"/>
<path d="M0 0 C7 0 7 0 10 2 C10.23611767 5.65982395 10.41089815 8.69259679 9.3125 12.1875 C8.81858631 15.05219942 10.46107384 16.66083224 12 19 C12 19.66 12 20.32 12 21 C10.125 20.8125 10.125 20.8125 8 20 C5.90757857 16.3382625 5.80675947 13.15467129 6 9 C6.66 9 7.32 9 8 9 C7.3045656 5.99615946 7.3045656 5.99615946 6 3 C4.68 2.67 3.36 2.34 2 2 C2 4.97 2 7.94 2 11 C2.99 11.33 3.98 11.66 5 12 C4.01 12 3.02 12 2 12 C2 14.64 2 17.28 2 20 C1.34 20 0.68 20 0 20 C0 13.4 0 6.8 0 0 Z " fill="#E7FAFD" transform="translate(155,73)"/>
<path d="M0 0 C2.97 0 5.94 0 9 0 C9 0.66 9 1.32 9 2 C7.02 2 5.04 2 3 2 C3 3.98 3 5.96 3 8 C4.65 8 6.3 8 8 8 C8.33 8.99 8.66 9.98 9 11 C7.02 11 5.04 11 3 11 C3 13.31 3 15.62 3 18 C5.31 18 7.62 18 10 18 C10 18.66 10 19.32 10 20 C6.7 20 3.4 20 0 20 C0 13.4 0 6.8 0 0 Z " fill="#D0E2E8" transform="translate(90,73)"/>
<path d="M0 0 C8 0 8 0 10 1.125 C11.42098605 3.78934884 11.19767261 6.03491085 11 9 C10.01 9 9.02 9 8 9 C7.67 7.02 7.34 5.04 7 3 C5.68 2.67 4.36 2.34 3 2 C3 4.97 3 7.94 3 11 C3.66 11.33 4.32 11.66 5 12 C4.34 12 3.68 12 3 12 C3 14.64 3 17.28 3 20 C2.01 20 1.02 20 0 20 C0 13.4 0 6.8 0 0 Z " fill="#E5F6FA" transform="translate(68,73)"/>
<path d="M0 0 C1.39195915 4.17587745 -0.17676781 6.13474776 -2 10 C-0.88625 9.319375 0.2275 8.63875 1.375 7.9375 C3.2734375 6.77734375 3.2734375 6.77734375 5 6 C5.66 6.33 6.32 6.66 7 7 C3.96821876 9.61070051 1.8345758 11.04135605 -2 12 C-2.33 12.99 -2.66 13.98 -3 15 C-4.32 15 -5.64 15 -7 15 C-7.33 14.01 -7.66 13.02 -8 12 C-10.64 12 -13.28 12 -16 12 C-16 11.67 -16 11.34 -16 11 C-13.36 10.67 -10.72 10.34 -8 10 C-8.33 7.03 -8.66 4.06 -9 1 C-8.38125 1.804375 -7.7625 2.60875 -7.125 3.4375 C-5.25835959 6.03874519 -5.25835959 6.03874519 -3 7 C-3 6.34 -3 5.68 -3 5 C-2.34 5 -1.68 5 -1 5 C-0.67 3.35 -0.34 1.7 0 0 Z " fill="#79A2B2" transform="translate(232,137)"/>
<path d="M0 0 C0.99 0.33 1.98 0.66 3 1 C1.71034824 2.37562854 0.37310707 3.70766393 -1 5 C-1.66 5 -2.32 5 -3 5 C-3.2475 5.804375 -3.495 6.60875 -3.75 7.4375 C-5 10 -5 10 -7.125 10.8125 C-7.74375 10.874375 -8.3625 10.93625 -9 11 C-9 12.32 -9 13.64 -9 15 C-7.68 15 -6.36 15 -5 15 C-5 14.01 -5 13.02 -5 12 C-4.34 12.33 -3.68 12.66 -3 13 C-3 13.99 -3 14.98 -3 16 C-1.68 16.33 -0.36 16.66 1 17 C-5.6 17 -12.2 17 -19 17 C-19 16.67 -19 16.34 -19 16 C-17.02 16 -15.04 16 -13 16 C-12.34 13.69 -11.68 11.38 -11 9 C-10.01 9 -9.02 9 -8 9 C-8.33 7.02 -8.66 5.04 -9 3 C-8.01 3.66 -7.02 4.32 -6 5 C-2.83884224 3.63016497 -2.0072908 3.0109362 0 0 Z " fill="#779FAC" transform="translate(87,139)"/>
<path d="M0 0 C0.99 0.33 1.98 0.66 3 1 C3 11 3 21 3 31 C2.01 31 1.02 31 0 31 C0 20.77 0 10.54 0 0 Z " fill="#81AAB9" transform="translate(0,107)"/>
<path d="M0 0 C4.29 0 8.58 0 13 0 C13 0.66 13 1.32 13 2 C11.35 2 9.7 2 8 2 C8 7.94 8 13.88 8 20 C7.01 20 6.02 20 5 20 C5 14.06 5 8.12 5 2 C3.35 2 1.7 2 0 2 C0 1.34 0 0.68 0 0 Z " fill="#E1F7FB" transform="translate(173,73)"/>
<path d="M0 0 C2.475 0.495 2.475 0.495 5 1 C5 2.98 5 4.96 5 7 C5.66 7 6.32 7 7 7 C6.95875 7.886875 6.9175 8.77375 6.875 9.6875 C6.99897246 12.97277013 7.61387904 15.05449295 9 18 C8.01 18 7.02 18 6 18 C3 13.77777778 3 13.77777778 3 11 C2.01 10.67 1.02 10.34 0 10 C0 6.7 0 3.4 0 0 Z " fill="#E0F0F6" transform="translate(71,75)"/>
<path d="M0 0 C2.43914428 2.43914428 3.75912787 3.9945659 5.3125 6.9375 C5.67988281 7.60652344 6.04726562 8.27554688 6.42578125 8.96484375 C7 11 7 11 6.10546875 13.25390625 C5.74066406 13.83011719 5.37585938 14.40632813 5 15 C4.01 15 3.02 15 2 15 C1.67 15.66 1.34 16.32 1 17 C-0.32 16.67 -1.64 16.34 -3 16 C-2.67 15.34 -2.34 14.68 -2 14 C-1.34 14 -0.68 14 0 14 C0 9.38 0 4.76 0 0 Z " fill="#94AEB9" transform="translate(211,79)"/>
<path d="M0 0 C0.33 0.66 0.66 1.32 1 2 C2.32 1.67 3.64 1.34 5 1 C4.67 1.99 4.34 2.98 4 4 C3.01 4 2.02 4 1 4 C0.67 7.96 0.34 11.92 0 16 C-0.33 16 -0.66 16 -1 16 C-1 13.36 -1 10.72 -1 8 C-4.85211144 9.79701477 -8.37544169 11.49163859 -11.6875 14.1875 C-14.19353751 16.15169156 -15.87254323 16.64257637 -19 17 C-15.11327187 13.81994972 -11.10047867 10.89445553 -7 8 C-8.32 7.34 -9.64 6.68 -11 6 C-7.7 5.34 -4.4 4.68 -1 4 C-0.67 2.68 -0.34 1.36 0 0 Z " fill="#789CAD" transform="translate(187,136)"/>
<path d="M0 0 C0.66 0.66 1.32 1.32 2 2 C-0.84179188 4.32510245 -3.72826599 6.57700599 -6.6875 8.75 C-7.26886719 9.17796875 -7.85023438 9.6059375 -8.44921875 10.046875 C-10 11 -10 11 -12 11 C-12.33 12.98 -12.66 14.96 -13 17 C-13.99 17 -14.98 17 -16 17 C-16 16.34 -16 15.68 -16 15 C-16.99 15 -17.98 15 -19 15 C-19 14.34 -19 13.68 -19 13 C-18.01 13 -17.02 13 -16 13 C-16 12.34 -16 11.68 -16 11 C-14.36145141 9.95456406 -12.68741965 8.96456867 -11 8 C-9.04905688 6.62301856 -7.11167156 5.22665018 -5.1875 3.8125 C-4.21167969 3.09707031 -3.23585937 2.38164063 -2.23046875 1.64453125 C-1.49441406 1.10183594 -0.75835937 0.55914062 0 0 Z " fill="#7DA3B5" transform="translate(228,111)"/>
<path d="M0 0 C1.49080078 0.16628906 1.49080078 0.16628906 3.01171875 0.3359375 C3.77097656 0.43132812 4.53023437 0.52671875 5.3125 0.625 C2.8125 2.625 2.8125 2.625 0.3125 4.625 C-0.533125 5.388125 -1.37875 6.15125 -2.25 6.9375 C-4.6875 8.625 -4.6875 8.625 -7 8.375 C-7.556875 8.1275 -8.11375 7.88 -8.6875 7.625 C-8.875 4.75 -8.875 4.75 -8.6875 1.625 C-5.1388865 -0.74074234 -4.1110475 -0.48365265 0 0 Z " fill="#89ADBF" transform="translate(176.6875,142.375)"/>
<path d="M0 0 C9.57 0 19.14 0 29 0 C27.68 0.33 26.36 0.66 25 1 C25 1.66 25 2.32 25 3 C19.39 3 13.78 3 8 3 C8 2.34 8 1.68 8 1 C5.36 1 2.72 1 0 1 C0 0.67 0 0.34 0 0 Z " fill="#85A5B2" transform="translate(134,159)"/>
<path d="M0 0 C0.66 0.33 1.32 0.66 2 1 C2.40743184 2.9862302 2.71818839 4.9920923 3 7 C3.34479967 8.79349287 3.69944496 10.58511327 4.0625 12.375 C4.23910156 13.24898437 4.41570313 14.12296875 4.59765625 15.0234375 C4.73042969 15.67570312 4.86320312 16.32796875 5 17 C3.078125 16.2578125 3.078125 16.2578125 1 15 C-0.11714584 12.37576119 -0.45369812 9.82255969 -1 7 C-1.33 7.66 -1.66 8.32 -2 9 C-3.32 9 -4.64 9 -6 9 C-5 7 -4 5 -3 3 C-2.34 3 -1.68 3 -1 3 C-0.67 2.01 -0.34 1.02 0 0 Z " fill="#7AA1B2" transform="translate(49,111)"/>
<path d="M0 0 C5.41759798 8.12639697 2.7880018 19.97132977 1 29 C0.34 29 -0.32 29 -1 29 C-1.02725341 27.2709226 -1.04650987 25.54171824 -1.0625 23.8125 C-1.07410156 22.84957031 -1.08570313 21.88664062 -1.09765625 20.89453125 C-1 18 -1 18 -0.46484375 15.4921875 C0.0741022 12.60271256 -0.15036584 10.22479363 -0.5 7.3125 C-1.10710383 2.21420765 -1.10710383 2.21420765 0 0 Z " fill="#82ACC2" transform="translate(10,67)"/>
<path d="M0 0 C5 1 5 1 6 2 C6.04063832 3.66617115 6.042721 5.33388095 6 7 C5.34 7 4.68 7 4 7 C4 8.65 4 10.3 4 12 C3.01 11.67 2.02 11.34 1 11 C1 13.31 1 15.62 1 18 C0.67 18 0.34 18 0 18 C0 12.06 0 6.12 0 0 Z " fill="#ADBFC3" transform="translate(157,75)"/>
<path d="M0 0 C0.66 0 1.32 0 2 0 C1.814375 1.216875 1.62875 2.43375 1.4375 3.6875 C1.01006818 7.02977939 1.07741117 9.71968417 2 13 C0.68 13 -0.64 13 -2 13 C-2 11.68 -2 10.36 -2 9 C-2.99 9.33 -3.98 9.66 -5 10 C-5 7.69 -5 5.38 -5 3 C-3.68 3 -2.36 3 -1 3 C-0.67 2.01 -0.34 1.02 0 0 Z " fill="#739AAB" transform="translate(237,120)"/>
<path d="M0 0 C14.52 0 29.04 0 44 0 C44 0.33 44 0.66 44 1 C39.07059672 1.16767195 34.14103251 1.32822547 29.21118164 1.48217773 C27.5340348 1.53555698 25.85694876 1.59088316 24.17993164 1.64819336 C21.76982734 1.73021822 19.35959139 1.80524581 16.94921875 1.87890625 C16.19912033 1.90594131 15.44902191 1.93297638 14.67619324 1.96083069 C11.47767446 2.05259138 9.06316748 2.02105583 6 1 C6 1.66 6 2.32 6 3 C5.01 3 4.02 3 3 3 C3 2.34 3 1.68 3 1 C2.01 0.67 1.02 0.34 0 0 Z " fill="#89A5AF" transform="translate(260,159)"/>
<path d="M0 0 C0 2.97 0 5.94 0 9 C-1.32 9 -2.64 9 -4 9 C-4 8.34 -4 7.68 -4 7 C-5.65 6.67 -7.3 6.34 -9 6 C-9 4.35 -9 2.7 -9 1 C-8.4225 1.20625 -7.845 1.4125 -7.25 1.625 C-4.04900167 2.15849972 -2.84679495 0 0 0 Z " fill="#7B9EAE" transform="translate(175,79)"/>
<path d="M0 0 C2.31 0 4.62 0 7 0 C6.67 1.32 6.34 2.64 6 4 C4.35 3.67 2.7 3.34 1 3 C0.67 6.63 0.34 10.26 0 14 C-0.33 14 -0.66 14 -1 14 C-1 12.02 -1 10.04 -1 8 C-1.66 8 -2.32 8 -3 8 C-3 10.31 -3 12.62 -3 15 C-3.33 15 -3.66 15 -4 15 C-4.45356243 8.53673535 -3.59378942 5.39068413 0 0 Z " fill="#D4E5EB" transform="translate(133,72)"/>
<path d="M0 0 C-6.14285714 5.57142857 -6.14285714 5.57142857 -11 6 C-11 6.66 -11 7.32 -11 8 C-12.42578125 9.2890625 -12.42578125 9.2890625 -14.3125 10.625 C-14.92738281 11.07101563 -15.54226562 11.51703125 -16.17578125 11.9765625 C-18 13 -18 13 -21 13 C-21 12.34 -21 11.68 -21 11 C-15.70588235 7 -15.70588235 7 -12 7 C-11.67 6.01 -11.34 5.02 -11 4 C-9.2578125 2.578125 -9.2578125 2.578125 -7.125 1.25 C-6.42632812 0.80140625 -5.72765625 0.3528125 -5.0078125 -0.109375 C-3 -1 -3 -1 0 0 Z " fill="#7BA0B2" transform="translate(260,130)"/>
<path d="M0 0 C0.33 0 0.66 0 1 0 C1 6.6 1 13.2 1 20 C1.66 20 2.32 20 3 20 C3 17.69 3 15.38 3 13 C3.33 13 3.66 13 4 13 C4 15.97 4 18.94 4 22 C2.35 21.67 0.7 21.34 -1 21 C-1 20.01 -1 19.02 -1 18 C-1.66 18 -2.32 18 -3 18 C-3 14.04 -3 10.08 -3 6 C-2.67 6 -2.34 6 -2 6 C-2 9.3 -2 12.6 -2 16 C-1.34 16 -0.68 16 0 16 C0 10.72 0 5.44 0 0 Z " fill="#A9C0CB" transform="translate(109,73)"/>
<path d="M0 0 C1.51400391 0.01740234 1.51400391 0.01740234 3.05859375 0.03515625 C4.07050781 0.04417969 5.08242187 0.05320312 6.125 0.0625 C7.29869141 0.07990234 7.29869141 0.07990234 8.49609375 0.09765625 C5.2681782 2.24959995 4.21208566 2.29852068 0.49609375 2.09765625 C0.49609375 2.75765625 0.49609375 3.41765625 0.49609375 4.09765625 C-0.16390625 4.09765625 -0.82390625 4.09765625 -1.50390625 4.09765625 C-1.49230469 4.66613281 -1.48070312 5.23460938 -1.46875 5.8203125 C-1.41167431 10.70436109 -1.68433853 15.2826959 -2.50390625 20.09765625 C-2.83390625 20.09765625 -3.16390625 20.09765625 -3.50390625 20.09765625 C-3.53279139 16.95184202 -3.55066548 13.80606156 -3.56640625 10.66015625 C-3.57478516 9.76232422 -3.58316406 8.86449219 -3.59179688 7.93945312 C-3.59501953 7.08544922 -3.59824219 6.23144531 -3.6015625 5.3515625 C-3.60941772 4.16542358 -3.60941772 4.16542358 -3.61743164 2.95532227 C-3.4390318 0.03608708 -2.92971854 0.11426359 0 0 Z " fill="#7096A3" transform="translate(10.50390625,106.90234375)"/>
<path d="M0 0 C0.33 0 0.66 0 1 0 C1.2165625 1.423125 1.2165625 1.423125 1.4375 2.875 C1.82935399 5.8934494 1.82935399 5.8934494 3 8 C2.67 8.66 2.34 9.32 2 10 C2.66 10 3.32 10 4 10 C4.33 8.35 4.66 6.7 5 5 C6.32 5 7.64 5 9 5 C9 8.3 9 11.6 9 15 C8.67 15 8.34 15 8 15 C8 12.03 8 9.06 8 6 C7.34 6 6.68 6 6 6 C6 8.64 6 11.28 6 14 C3.5625 13.625 3.5625 13.625 1 13 C-0.32229189 10.35541621 -0.09677194 8.32238699 -0.0625 5.375 C-0.05347656 4.37210937 -0.04445312 3.36921875 -0.03515625 2.3359375 C-0.02355469 1.56507812 -0.01195312 0.79421875 0 0 Z " fill="#A7BBC3" transform="translate(235,78)"/>
<path d="M0 0 C1.875 0.6875 1.875 0.6875 4 2 C4.70211894 3.65204456 5.36971413 5.31923769 6 7 C6.99 7.66 7.98 8.32 9 9 C7 10 7 10 4.3125 9.5 C0.6298765 8.9441323 -2.35235301 9.34342354 -6 10 C-5.67 9.34 -5.34 8.68 -5 8 C-2.9375 7.375 -2.9375 7.375 -1 7 C-0.67 4.69 -0.34 2.38 0 0 Z " fill="#85A4B3" transform="translate(158,86)"/>
<path d="M0 0 C0.66 0 1.32 0 2 0 C2.12661871 7.5971223 2.12661871 7.5971223 1.3125 10.1875 C0.81858631 13.05219942 2.46107384 14.66083224 4 17 C4 17.66 4 18.32 4 19 C2.125 18.8125 2.125 18.8125 0 18 C-2.09242143 14.3382625 -2.19324053 11.15467129 -2 7 C-1.34 7 -0.68 7 0 7 C0 4.69 0 2.38 0 0 Z " fill="#E6F8FA" transform="translate(163,75)"/>
<path d="M0 0 C3.34373475 0.55728913 6.03312999 1.35173889 9 3 C9 2.01 9 1.02 9 0 C9.99 0.33 10.98 0.66 12 1 C11.67 1.99 11.34 2.98 11 4 C14.3 4.99 17.6 5.98 21 7 C16.6004423 8.09988943 15.82380569 7.55216866 11.94921875 5.703125 C8.61569505 4.50065152 5.50950951 4.81528897 2 5 C2 4.01 2 3.02 2 2 C1.34 1.34 0.68 0.68 0 0 Z " fill="#7BA0B0" transform="translate(258,105)"/>
<path d="M0 0 C2.35169956 1.92411782 3.03440092 3.10535283 4 6.0625 C4.76334112 9.28198892 4.76334112 9.28198892 8 11 C7.34 11 6.68 11 6 11 C6.350625 11.763125 6.70125 12.52625 7.0625 13.3125 C8 16 8 16 7 19 C4 13.25 4 13.25 4 11 C3.34 11 2.68 11 2 11 C2 11.66 2 12.32 2 13 C-0.97 12.505 -0.97 12.505 -4 12 C-1.35261084 10.5393715 -0.10551666 10 3 10 C2.505 8.906875 2.01 7.81375 1.5 6.6875 C0 3 0 3 0 0 Z " fill="#789FB0" transform="translate(40,93)"/>
<path d="M0 0 C0.66 0 1.32 0 2 0 C2 6.6 2 13.2 2 20 C1.01 20 0.02 20 -1 20 C-0.67 13.4 -0.34 6.8 0 0 Z " fill="#E9FBFD" transform="translate(219,73)"/>
<path d="M0 0 C2.475 0.495 2.475 0.495 5 1 C5.93423645 4.01031744 6.04449911 4.86650268 5 8 C3.35 8.33 1.7 8.66 0 9 C0 6.03 0 3.06 0 0 Z " fill="#A9B9BE" transform="translate(112,75)"/>
<path d="M0 0 C0.99 0.33 1.98 0.66 3 1 C3 1.66 3 2.32 3 3 C-8.88 3 -20.76 3 -33 3 C-33 2.67 -33 2.34 -33 2 C-31.55379272 1.96241577 -31.55379272 1.96241577 -30.07836914 1.92407227 C-26.51312158 1.83014694 -22.94807567 1.72989061 -19.38305664 1.62768555 C-17.83785711 1.58428015 -16.29260786 1.54260929 -14.74731445 1.50268555 C-12.53060904 1.44511801 -10.3141552 1.38138576 -8.09765625 1.31640625 C-7.4028566 1.29969376 -6.70805695 1.28298126 -5.99220276 1.26576233 C-2.71237971 1.43497144 -2.71237971 1.43497144 0 0 Z " fill="#6A97A9" transform="translate(65,159)"/>
<path d="M0 0 C0.33 0 0.66 0 1 0 C1 7.59 1 15.18 1 23 C1.66 23.33 2.32 23.66 3 24 C2.01 24.33 1.02 24.66 0 25 C-0.66 25.66 -1.32 26.32 -2 27 C-1.46839258 17.98529551 -0.89495536 8.98763677 0 0 Z " fill="#789FAF" transform="translate(191,96)"/>
<path d="M0 0 C0.66 0.99 1.32 1.98 2 3 C1.125 5.6875 1.125 5.6875 0 8 C-0.598125 7.649375 -1.19625 7.29875 -1.8125 6.9375 C-4.10813214 5.66695302 -4.10813214 5.66695302 -7 7 C-7.5625 5.0625 -7.5625 5.0625 -8 3 C-7 2 -7 2 -3.4375 1.9375 C-2.303125 1.958125 -1.16875 1.97875 0 2 C0 1.34 0 0.68 0 0 Z " fill="#94B1BB" transform="translate(243,73)"/>
<path d="M0 0 C1.98 0 3.96 0 6 0 C6 3.96 6 7.92 6 12 C4.02433812 10.02433812 3.10420928 8.47662906 1.875 6 C1.52179688 5.29875 1.16859375 4.5975 0.8046875 3.875 C0 2 0 2 0 0 Z " fill="#95A9B0" transform="translate(212,73)"/>
<path d="M0 0 C0.35191406 0.95132813 0.35191406 0.95132813 0.7109375 1.921875 C1.82290908 4.18250739 1.82290908 4.18250739 4.1640625 4.828125 C4.97617188 4.96734375 5.78828125 5.1065625 6.625 5.25 C7.44226563 5.39953125 8.25953125 5.5490625 9.1015625 5.703125 C9.72804687 5.80109375 10.35453125 5.8990625 11 6 C11 6.33 11 6.66 11 7 C7.04 7 3.08 7 -1 7 C-1.33 7.66 -1.66 8.32 -2 9 C-2.66 9 -3.32 9 -4 9 C-4.33 7.35 -4.66 5.7 -5 4 C-4.01 4 -3.02 4 -2 4 C-2 3.01 -2 2.02 -2 1 C-1.34 0.67 -0.68 0.34 0 0 Z " fill="#799EAE" transform="translate(165,135)"/>
<path d="M0 0 C0.66 0 1.32 0 2 0 C2 3.3 2 6.6 2 10 C-0.64 10 -3.28 10 -6 10 C-6.33 8.35 -6.66 6.7 -7 5 C-6.34 5 -5.68 5 -5 5 C-4.67 5.66 -4.34 6.32 -4 7 C-1.97536745 7.65213292 -1.97536745 7.65213292 0 8 C0 5.36 0 2.72 0 0 Z " fill="#E5F4F8" transform="translate(241,84)"/>
<path d="M0 0 C0.66 0 1.32 0 2 0 C2.36148552 2.95760879 2.71449116 5.91580226 3.0625 8.875 C3.16626953 9.71675781 3.27003906 10.55851563 3.37695312 11.42578125 C3.47041016 12.23144531 3.56386719 13.03710938 3.66015625 13.8671875 C3.74918213 14.61081543 3.83820801 15.35444336 3.92993164 16.12060547 C4 18 4 18 3 20 C2.34 20 1.68 20 1 20 C1 19.34 1 18.68 1 18 C0.01 17.67 -0.98 17.34 -2 17 C-1.01 15.515 -1.01 15.515 0 14 C0.33 14.66 0.66 15.32 1 16 C1.33 14.68 1.66 13.36 2 12 C1.34 11.67 0.68 11.34 0 11 C0 7.37 0 3.74 0 0 Z " fill="#799EAE" transform="translate(63,136)"/>
<path d="M0 0 C0.66 0 1.32 0 2 0 C2.05418326 2.08304538 2.09287551 4.16649768 2.125 6.25 C2.14820313 7.41015625 2.17140625 8.5703125 2.1953125 9.765625 C2.0103949 12.82786046 1.60823023 14.44202751 0 17 C0 14.36 0 11.72 0 9 C-0.66 9 -1.32 9 -2 9 C-2.33 9.66 -2.66 10.32 -3 11 C-2.11223998 7.30099992 -1.05418136 3.65449539 0 0 Z " fill="#729AA5" transform="translate(192,79)"/>
<path d="M0 0 C4 1 4 1 6 3 C5.34 3.66 4.68 4.32 4 5 C2.96157435 7.31648799 1.9578025 9.64903024 1 12 C0.67 12 0.34 12 0 12 C0 8.04 0 4.08 0 0 Z " fill="#92AAB4" transform="translate(181,76)"/>
<path d="M0 0 C2.475 0.495 2.475 0.495 5 1 C5 2.98 5 4.96 5 7 C3.35 7.33 1.7 7.66 0 8 C0 5.36 0 2.72 0 0 Z " fill="#9CAAB4" transform="translate(71,75)"/>
<path d="M0 0 C2.4294516 3.6441774 2.16179575 5.71241272 2 10 C4.64 10 7.28 10 10 10 C10 10.66 10 11.32 10 12 C6.7 12 3.4 12 0 12 C0 8.04 0 4.08 0 0 Z " fill="#E5F8FC" transform="translate(90,81)"/>
<path d="M0 0 C0.66 0.33 1.32 0.66 2 1 C-1.03178124 3.61070051 -3.1654242 5.04135605 -7 6 C-7.33 6.99 -7.66 7.98 -8 9 C-8.99 8.67 -9.98 8.34 -11 8 C-10.67 6.68 -10.34 5.36 -10 4 C-9.34 4 -8.68 4 -8 4 C-7.67 3.34 -7.34 2.68 -7 2 C-7 2.66 -7 3.32 -7 4 C-5.88625 3.319375 -4.7725 2.63875 -3.625 1.9375 C-1.7265625 0.77734375 -1.7265625 0.77734375 0 0 Z " fill="#6B96A6" transform="translate(237,143)"/>
<path d="M0 0 C0.66 0.33 1.32 0.66 2 1 C2.36305732 6.44585987 2.36305732 6.44585987 0.8125 8.8125 C-1.42031739 10.27538036 -3.37344067 10.64505955 -6 11 C-5.34 10.67 -4.68 10.34 -4 10 C-4 9.34 -4 8.68 -4 8 C-3.34 8 -2.68 8 -2 8 C-2 6.02 -2 4.04 -2 2 C-1.34 2 -0.68 2 0 2 C0 1.34 0 0.68 0 0 Z " fill="#D8EDF3" transform="translate(119,75)"/>
<path d="M0 0 C1.32 0.33 2.64 0.66 4 1 C4 1.66 4 2.32 4 3 C4.99 3.33 5.98 3.66 7 4 C6.21625 4.28875 5.4325 4.5775 4.625 4.875 C1.90328368 5.84912254 1.90328368 5.84912254 0 8 C0 7.34 0 6.68 0 6 C-0.99 6.33 -1.98 6.66 -3 7 C-3 6.34 -3 5.68 -3 5 C-2.34 5 -1.68 5 -1 5 C-0.67 3.35 -0.34 1.7 0 0 Z " fill="#6A93A4" transform="translate(19,38)"/>
<path d="M0 0 C1.32 0 2.64 0 4 0 C5.125 4.75 5.125 4.75 4 7 C2.68 7 1.36 7 0 7 C-0.38133299 5.0085944 -0.71325582 3.00720923 -1 1 C-0.67 0.67 -0.34 0.34 0 0 Z " fill="#588493" transform="translate(244,97)"/>
<path d="M0 0 C0.33 0 0.66 0 1 0 C1 2.64 1 5.28 1 8 C1.99 8 2.98 8 4 8 C4.33 9.65 4.66 11.3 5 13 C4.34 13 3.68 13 3 13 C2.67 15.97 2.34 18.94 2 22 C1.67 22 1.34 22 1 22 C1 18.37 1 14.74 1 11 C0.67 11 0.34 11 0 11 C0 7.37 0 3.74 0 0 Z " fill="#7AA1B2" transform="translate(62,112)"/>
<path d="M0 0 C1.32 0.33 2.64 0.66 4 1 C-0.75 5 -0.75 5 -3 5 C-3 5.66 -3 6.32 -3 7 C-1.35 7.33 0.3 7.66 2 8 C-2.00200378 9.60080151 -5.04556236 8.29279692 -9 7 C-9 6.34 -9 5.68 -9 5 C-7.88625 4.731875 -6.7725 4.46375 -5.625 4.1875 C-1.78159049 3.34190981 -1.78159049 3.34190981 0 0 Z " fill="#779CAC" transform="translate(288,108)"/>
<path d="M0 0 C0.66 0 1.32 0 2 0 C2 3.96 2 7.92 2 12 C1.01 12 0.02 12 -1 12 C-1.14285714 3.42857143 -1.14285714 3.42857143 0 0 Z " fill="#DFF1F5" transform="translate(232,76)"/>
<path d="M0 0 C4.95 0.99 4.95 0.99 10 2 C10 2.66 10 3.32 10 4 C11.423125 4.185625 11.423125 4.185625 12.875 4.375 C16 5 16 5 18 7 C11.68878497 5.9007105 5.93661416 4.41862058 0 2 C0 1.34 0 0.68 0 0 Z " fill="#7CA1B1" transform="translate(70,56)"/>
<path d="M0 0 C0 0.66 0 1.32 0 2 C-0.928125 2.433125 -1.85625 2.86625 -2.8125 3.3125 C-5.53354375 4.75305257 -6.9859139 5.79409618 -9 8 C-9.99 8.66 -10.98 9.32 -12 10 C-12.99 9.67 -13.98 9.34 -15 9 C-13.58680023 7.87064804 -12.16928595 6.74669374 -10.75 5.625 C-9.96109375 4.99851563 -9.1721875 4.37203125 -8.359375 3.7265625 C-3.26696833 0 -3.26696833 0 0 0 Z " fill="#7BA0B0" transform="translate(209,126)"/>
<path d="M0 0 C0.66 0.33 1.32 0.66 2 1 C2.4140625 3.50390625 2.4140625 3.50390625 2.625 6.5625 C2.69976562 7.57441406 2.77453125 8.58632812 2.8515625 9.62890625 C2.90054688 10.41136719 2.94953125 11.19382812 3 12 C2.34 12 1.68 12 1 12 C0.67 13.32 0.34 14.64 0 16 C-2 15 -2 15 -3 13 C-2.01 13 -1.02 13 0 13 C0 8.71 0 4.42 0 0 Z " fill="#96B0BB" transform="translate(221,80)"/>
<path d="M0 0 C1.32 0 2.64 0 4 0 C4.2475 0.78375 4.495 1.5675 4.75 2.375 C6.15389099 5.32317108 7.00675737 5.9024777 10 7 C10 7.66 10 8.32 10 9 C8.0625 8.1875 8.0625 8.1875 6 7 C5.67 6.01 5.34 5.02 5 4 C3.35 4 1.7 4 0 4 C0 2.68 0 1.36 0 0 Z " fill="#6C93A4" transform="translate(51,78)"/>
<path d="M0 0 C0.66 0 1.32 0 2 0 C2.33 0.99 2.66 1.98 3 3 C3.66 3.33 4.32 3.66 5 4 C5 4.99 5 5.98 5 7 C2.69 7 0.38 7 -2 7 C-1.34 4.69 -0.68 2.38 0 0 Z " fill="#759FAD" transform="translate(171,121)"/>
<path d="M0 0 C2.83328987 2.83328987 3.7191375 4.35446828 5 8 C4.01 8 3.02 8 2 8 C1.67 9.98 1.34 11.96 1 14 C0.67 14 0.34 14 0 14 C0 9.38 0 4.76 0 0 Z " fill="#A0B4BB" transform="translate(211,79)"/>
<path d="M0 0 C2 2 2 2 2 5 C1.01 5.495 1.01 5.495 0 6 C0.33 7.98 0.66 9.96 1 12 C-1.27795022 9.72204978 -2.05219877 8.06212707 -3 5 C-2.75 2.75 -2.75 2.75 -2 1 C-1.34 0.67 -0.68 0.34 0 0 Z " fill="#749BAC" transform="translate(77,130)"/>
<path d="M0 0 C2.97 0.495 2.97 0.495 6 1 C5.34 1.66 4.68 2.32 4 3 C4.3185177 5.10820797 4.3185177 5.10820797 5 7 C3.35 7 1.7 7 0 7 C0 4.69 0 2.38 0 0 Z " fill="#89A3AC" transform="translate(93,84)"/>
<path d="M0 0 C1.00289062 0.10183594 2.00578125 0.20367187 3.0390625 0.30859375 C3.80992188 0.39238281 4.58078125 0.47617188 5.375 0.5625 C5.375 1.2225 5.375 1.8825 5.375 2.5625 C1.085 2.5625 -3.205 2.5625 -7.625 2.5625 C-7.625 1.9025 -7.625 1.2425 -7.625 0.5625 C-4.89657939 -0.80171031 -3.01546682 -0.31557211 0 0 Z " fill="#82AABD" transform="translate(12.625,159.4375)"/>
<path d="M0 0 C2.92879371 0.62759865 5.36095629 1.58622659 8 3 C7 4 7 4 3.40234375 4.09765625 C1.91403133 4.0909822 0.42573568 4.07902183 -1.0625 4.0625 C-1.82111328 4.05798828 -2.57972656 4.05347656 -3.36132812 4.04882812 C-5.24091871 4.0370068 -7.12046899 4.01907078 -9 4 C-9 3.67 -9 3.34 -9 3 C-5.7 2.67 -2.4 2.34 1 2 C0.67 1.34 0.34 0.68 0 0 Z " fill="#81A0AC" transform="translate(129,152)"/>
<path d="M0 0 C3.14318972 1.57159486 3.46088309 4.22861392 4.6875 7.4375 C5.14511719 8.61183594 5.60273437 9.78617188 6.07421875 10.99609375 C7 14 7 14 6 16 C3 10.25 3 10.25 3 8 C2.01 7.67 1.02 7.34 0 7 C0 4.69 0 2.38 0 0 Z " fill="#79A0B1" transform="translate(32,72)"/>
<path d="M0 0 C0.33 0 0.66 0 1 0 C1 4.95 1 9.9 1 15 C1.99 15.33 2.98 15.66 4 16 C3.34 16 2.68 16 2 16 C2 16.66 2 17.32 2 18 C0.68 18 -0.64 18 -2 18 C-2 17.34 -2 16.68 -2 16 C-1.34 16 -0.68 16 0 16 C0 10.72 0 5.44 0 0 Z " fill="#7296A2" transform="translate(3,144)"/>
<path d="M0 0 C1.65 0 3.3 0 5 0 C4.67 1.65 4.34 3.3 4 5 C2.68 5 1.36 5 0 5 C-0.33 4.34 -0.66 3.68 -1 3 C-0.67 2.01 -0.34 1.02 0 0 Z " fill="#6B9BA9" transform="translate(229,102)"/>
<path d="M0 0 C-0.33 0.66 -0.66 1.32 -1 2 C1.97 2.495 1.97 2.495 5 3 C5 3.66 5 4.32 5 5 C0.71 4.01 -3.58 3.02 -8 2 C-8 1.34 -8 0.68 -8 0 C-2.25 -1.125 -2.25 -1.125 0 0 Z " fill="#7CA1B1" transform="translate(61,51)"/>
<path d="M0 0 C1.98 0.66 3.96 1.32 6 2 C6 3.65 6 5.3 6 7 C4.68 7.33 3.36 7.66 2 8 C1.855625 7.236875 1.71125 6.47375 1.5625 5.6875 C1.0367406 2.91827092 1.0367406 2.91827092 0 0 Z " fill="#7FA4B6" transform="translate(209,112)"/>
<path d="M0 0 C2.97 0 5.94 0 9 0 C9 0.66 9 1.32 9 2 C6.69 2 4.38 2 2 2 C1.67 3.65 1.34 5.3 1 7 C0.67 7 0.34 7 0 7 C0 4.69 0 2.38 0 0 Z " fill="#E6FAFE" transform="translate(90,73)"/>
<path d="M0 0 C0.99 0 1.98 0 3 0 C2.67 1.65 2.34 3.3 2 5 C-1.3 4.34 -4.6 3.68 -8 3 C-8 2.67 -8 2.34 -8 2 C-5.36 2 -2.72 2 0 2 C0 1.34 0 0.68 0 0 Z " fill="#749AAB" transform="translate(213,144)"/>
<path d="M0 0 C0.99 0 1.98 0 3 0 C4.25541557 3.76624671 3.37061958 5.37188934 2 9 C1.34 9 0.68 9 0 9 C0 6.03 0 3.06 0 0 Z " fill="#91A8AD" transform="translate(71,86)"/>
<path d="M0 0 C1.9375 0.8125 1.9375 0.8125 4 2 C4.33 2.99 4.66 3.98 5 5 C1.125 7 1.125 7 0 7 C0 4.69 0 2.38 0 0 Z " fill="#91A9AD" transform="translate(158,86)"/>
<path d="M0 0 C1.875 0.625 1.875 0.625 4 2 C5.25 5.125 5.25 5.125 6 8 C4.68 7.67 3.36 7.34 2 7 C1.34 4.69 0.68 2.38 0 0 Z " fill="#D5ECF2" transform="translate(161,86)"/>
<path d="M0 0 C1.42944945 2.35438733 2.08661261 3.48032433 1.625 6.25 C1.41875 6.8275 1.2125 7.405 1 8 C1.66 8.33 2.32 8.66 3 9 C1.02 9.99 1.02 9.99 -1 11 C-2.60080151 6.99799622 -1.29279692 3.95443764 0 0 Z " fill="#A0B7BD" transform="translate(165,77)"/>
<path d="M0 0 C4.43458973 1.3937282 6.87378374 3.60582235 10 7 C7.07120629 6.37240135 4.63904371 5.41377341 2 4 C2 3.34 2 2.68 2 2 C1.34 2 0.68 2 0 2 C0 1.34 0 0.68 0 0 Z " fill="#7CA1B2" transform="translate(108,137)"/>
<path d="M0 0 C0.66 0 1.32 0 2 0 C2 0.66 2 1.32 2 2 C3.32 2.66 4.64 3.32 6 4 C5.01 5.485 5.01 5.485 4 7 C3.34 7 2.68 7 2 7 C0 4 0 4 0 0 Z " fill="#86B0C0" transform="translate(65,106)"/>
<path d="M0 0 C2.475 0.99 2.475 0.99 5 2 C5 2.66 5 3.32 5 4 C6.32 4.66 7.64 5.32 9 6 C9 6.66 9 7.32 9 8 C7 7 5 6 3 5 C3 4.34 3 3.68 3 3 C2.34 3 1.68 3 1 3 C0.67 2.01 0.34 1.02 0 0 Z " fill="#77A1B1" transform="translate(64,103)"/>
<path d="M0 0 C0.99 0.33 1.98 0.66 3 1 C3.3721042 2.32303717 3.70630173 3.65737935 4 5 C4.66 5.33 5.32 5.66 6 6 C4.02 6 2.04 6 0 6 C-1 3 -1 3 0 0 Z " fill="#98ADBB" transform="translate(134,85)"/>
<path d="M0 0 C2.83374881 3.20336822 3.5205537 5.78087253 4 10 C1.4375 7.8125 1.4375 7.8125 -1 5 C-0.8125 2.1875 -0.8125 2.1875 0 0 Z " fill="#E2F1F4" transform="translate(211,73)"/>
<path d="M0 0 C1.32 1.32 2.64 2.64 4 4 C0.25 7 0.25 7 -2 7 C-1.34 4.69 -0.68 2.38 0 0 Z " fill="#86AEBE" transform="translate(232,140)"/>
<path d="M0 0 C0.99 0.33 1.98 0.66 3 1 C3 2.32 3 3.64 3 5 C1.35 4.67 -0.3 4.34 -2 4 C-2 3.01 -2 2.02 -2 1 C-1.34 0.67 -0.68 0.34 0 0 Z " fill="#5E8596" transform="translate(56,137)"/>
<path d="M0 0 C0.66 0.99 1.32 1.98 2 3 C0.02 5.97 -1.96 8.94 -4 12 C-5 9 -5 9 -4.00390625 6.73828125 C-3.52824219 5.93777344 -3.05257812 5.13726562 -2.5625 4.3125 C-2.08941406 3.50425781 -1.61632812 2.69601563 -1.12890625 1.86328125 C-0.75636719 1.24839844 -0.38382813 0.63351563 0 0 Z " fill="#7AA1B0" transform="translate(178,109)"/>
<path d="M0 0 C1.125 1.75 1.125 1.75 2 4 C1.17133982 6.8174446 0.41463847 7.75609502 -2.125 9.25 C-2.74375 9.4975 -3.3625 9.745 -4 10 C-3.67 8.35 -3.34 6.7 -3 5 C-2.34 5 -1.68 5 -1 5 C-0.67 3.35 -0.34 1.7 0 0 Z " fill="#7FA5B6" transform="translate(75,93)"/>
<path d="M0 0 C1.98 0.495 1.98 0.495 4 1 C4 1.66 4 2.32 4 3 C4.66 3 5.32 3 6 3 C6.33 4.65 6.66 6.3 7 8 C6.236875 7.175 5.47375 6.35 4.6875 5.5 C2.24565858 2.65944803 2.24565858 2.65944803 -1 3 C-0.67 2.01 -0.34 1.02 0 0 Z " fill="#7BA2B3" transform="translate(33,56)"/>
<path d="M0 0 C0.33 0.99 0.66 1.98 1 3 C0.34 3 -0.32 3 -1 3 C-0.67 2.01 -0.34 1.02 0 0 Z M-2 3 C-1.67 3 -1.34 3 -1 3 C-0.67 5.31 -0.34 7.62 0 10 C-1.32 10 -2.64 10 -4 10 C-3.34 7.69 -2.68 5.38 -2 3 Z " fill="#7FA1B1" transform="translate(159,146)"/>
<path d="M0 0 C0 0.99 0 1.98 0 3 C-6.75 7 -6.75 7 -9 7 C-9 6.34 -9 5.68 -9 5 C-6.03 3.35 -3.06 1.7 0 0 Z " fill="#7A9FAF" transform="translate(271,121)"/>
<path d="M0 0 C0.93423645 3.01031744 1.04449911 3.86650268 0 7 C-2.0625 8.1875 -2.0625 8.1875 -4 9 C-4.25 6.75 -4.25 6.75 -4 4 C-2 1.6875 -2 1.6875 0 0 Z " fill="#7BA2B1" transform="translate(183,100)"/>
<path d="M0 0 C1.5 1.1875 1.5 1.1875 3 3 C3.1875 5.6875 3.1875 5.6875 3 8 C2.01 8 1.02 8 0 8 C0 5.36 0 2.72 0 0 Z " fill="#7CA6AA" transform="translate(198,88)"/>
<path d="M0 0 C2.64 0 5.28 0 8 0 C8 1.32 8 2.64 8 4 C6.68 3.67 5.36 3.34 4 3 C4 2.34 4 1.68 4 1 C2.68 0.67 1.36 0.34 0 0 Z " fill="#658E9E" transform="translate(88,63)"/>
<path d="M0 0 C2.97 0.33 5.94 0.66 9 1 C9 1.99 9 2.98 9 4 C5.85262818 3.30058404 2.97411124 2.23921302 0 1 C0 0.67 0 0.34 0 0 Z " fill="#7B9FAF" transform="translate(296,120)"/>
<path d="M0 0 C0.66 0 1.32 0 2 0 C1.67 2.64 1.34 5.28 1 8 C0.01 8 -0.98 8 -2 8 C-1.34 5.36 -0.68 2.72 0 0 Z " fill="#769DAE" transform="translate(185,112)"/>
<path d="M0 0 C0 0.99 0 1.98 0 3 C-0.99 3 -1.98 3 -3 3 C-3 3.66 -3 4.32 -3 5 C-3.99 4.67 -4.98 4.34 -6 4 C-5.67 3.01 -5.34 2.02 -5 1 C-3 0 -3 0 0 0 Z " fill="#668D9E" transform="translate(62,100)"/>
<path d="M0 0 C0.33 0 0.66 0 1 0 C2.25 7.625 2.25 7.625 0 11 C-0.66 10.67 -1.32 10.34 -2 10 C-1.34 6.7 -0.68 3.4 0 0 Z " fill="#8BA7B2" transform="translate(121,75)"/>
<path d="M0 0 C0.66 0.99 1.32 1.98 2 3 C1.67 3.99 1.34 4.98 1 6 C-0.32 6 -1.64 6 -3 6 C-2.67 4.68 -2.34 3.36 -2 2 C-1.34 2 -0.68 2 0 2 C0 1.34 0 0.68 0 0 Z " fill="#97A7AC" transform="translate(116,77)"/>
<path d="M0 0 C0.33 0.99 0.66 1.98 1 3 C1.99 3 2.98 3 4 3 C3.67 4.32 3.34 5.64 3 7 C2.01 7 1.02 7 0 7 C0 4.69 0 2.38 0 0 Z " fill="#7197A4" transform="translate(100,149)"/>
<path d="M0 0 C1.32 0.33 2.64 0.66 4 1 C-1.75 6 -1.75 6 -4 6 C-3.34 4.68 -2.68 3.36 -2 2 C-1.34 2 -0.68 2 0 2 C0 1.34 0 0.68 0 0 Z " fill="#779EAF" transform="translate(55,105)"/>
<path d="M0 0 C0 1.32 0 2.64 0 4 C-1.65 4 -3.3 4 -5 4 C-5 3.01 -5 2.02 -5 1 C-2 0 -2 0 0 0 Z " fill="#95B2BE" transform="translate(183,92)"/>
<path d="M0 0 C1.65 0 3.3 0 5 0 C4.1875 1.9375 4.1875 1.9375 3 4 C2.01 4.33 1.02 4.66 0 5 C0 3.35 0 1.7 0 0 Z " fill="#6F96AA" transform="translate(8,48)"/>
</svg>
